<?xml version="1.0" encoding="utf-8" ?><svg xmlns="http://www.w3.org/2000/svg" xmlns:xlink="http://www.w3.org/1999/xlink" width="1024" height="1536" viewBox="0 0 1024 1536"><path fill="#16120F" d="M0 0L1024 0L1024 1536L841.028 1536L822.76 1536L716.277 1536L699.202 1536L201.52 1536L183.777 1536L0 1536L0 0Z"/><path fill="#FFE6BD" d="M0 0L1024 0L1024 1536L841.028 1536C841.309 1470.83 822.375 1394.95 785.062 1341.21C826.285 1312.48 867.15 1276.94 902.214 1241.04C910.325 1242.48 918.59 1240.82 924.739 1235.36C951.267 1211.81 980.612 1169.95 996.344 1138.76C1028.87 1074.28 969.023 997.483 931.74 947.799C933.619 941.973 934.841 935.064 931.733 929.542C925.752 918.919 912.159 905.491 903.846 896.441C876.482 866.653 847.429 838.217 814.784 814.252C808.437 808.805 797.336 806.292 790.982 801.728C758.181 778.166 723.31 764.155 683.354 758.045C671.005 756.157 649.106 754.032 637.992 749.611L637.043 749.227C633.465 728.882 637.543 691.777 645.254 672.155C646.054 670.121 657.428 657.159 659.76 654.331C662.551 670.145 666.895 682.922 677.322 695.559C695.549 717.651 728.118 720.792 749.804 701.759C764.58 688.79 772.377 669.415 773.605 649.868C775.358 621.974 767.464 599.788 749.157 578.664L750.724 576.137C760.157 560.742 766.931 543.254 767.66 524.875C767.854 519.981 765.544 511.82 766.513 507.146C768.151 499.237 771.529 491.192 773.149 483.138C778.34 457.34 777.322 432.58 771.212 407.203C797.109 417.2 819.252 436.292 822.846 465.416C823.618 471.675 820.377 482.357 825.581 486.208C834.243 486.565 838.657 468.723 839.768 462.124C842.777 444.242 840.894 430.011 830.664 415.102C876.507 411.626 912.799 369.222 914.563 324.232C915.811 292.411 903.426 271.044 882.677 248.345C900.136 252.48 915.086 258.89 921.988 276.163C923.408 279.717 926.552 286.404 928.997 288.978C931.38 289.798 930.423 289.648 933.032 289.13C934.993 287.667 936.035 285.733 936.256 283.269C937.879 264.152 929.287 246.074 915.745 232.946C904.01 221.569 892.403 217.269 876.823 214.438C885.879 193.606 889.421 171.084 876.513 150.501C875.209 148.422 873.44 147.404 871.098 146.973C869.612 147.567 867.703 148.638 867.628 150.328C866.706 171.215 866.008 179.026 854.056 197.172C846.555 128.712 795.63 88.4248 726.595 97.8738C708.445 100.358 697.429 106.656 682.01 116.211C695.196 97.9739 706.328 92.1777 727.261 89.0525C732.484 88.2729 734.562 78.9195 726.887 76.6687C714.96 73.1707 701.582 76.9909 690.642 82.1735C664.415 95.3212 652.479 117.984 643.807 144.264C628.489 118.981 603.181 98.5325 571.737 105.402C567.225 106.388 562.618 106.704 559.544 110.659C558.892 113.313 558.969 112.276 559.806 115.071C570.538 124.384 592.742 106.365 618.489 150.696C602.337 148.098 586.32 147.13 571.602 155.625C567.973 157.72 559 163.413 562.289 168.116C567.973 170.564 573.472 167.994 579.342 167.237C604.792 163.951 622.282 183.588 626.227 207.073C559.667 184.875 463.757 177.672 407.309 228.337C403.18 232.043 399.183 236.497 395.414 240.594C359.715 233.343 318.748 243.634 295.315 272.847C279.872 292.1 278.598 317.62 287.471 340.106C294.633 358.256 306.541 381.163 292.287 399.178C284.301 409.179 270.306 414.124 257.719 412.689C251.332 411.961 241.149 406.496 236.592 412.932C235.317 426.665 266.714 444.047 278.318 446.493C302.306 451.548 318.209 445.863 338.221 433.906C336.687 447.272 335.787 459.977 335.028 473.376C309.286 489.623 307.492 524.347 313.768 551.184C286.464 563.967 274.066 587.622 272.51 616.815C269.602 671.358 324.939 707.828 368.048 666.727C388.006 690.828 414.414 712.312 441.037 728.473C441.134 737.626 440.822 744.116 439.898 753.177C412.143 752.156 390.708 745.173 361.573 750.276C329.963 755.811 308.201 771.019 285.601 793.453C281.771 797.255 273.62 799.888 269.643 803.989C233.66 839.372 202.014 882.932 172.391 923.598C171.721 915.876 170.402 908.162 169.192 900.501C197.396 868.609 210.184 835.287 204.036 792.295C202.112 778.848 198.894 765.791 198.097 752.197C197.22 737.249 202.491 722.376 199.527 707.655C196.796 693.85 184.811 685.373 170.857 688.765C161.57 691.023 155.964 700.372 151.603 708.265C146.451 704.73 143.682 703.084 138.125 700.226C138.113 670.759 136.312 640.839 135.885 611.229C135.623 593.066 133.353 568.821 136.818 551.218C138.297 543.703 148.557 531.515 153.786 525.07C175.269 498.492 186.27 471.08 187.319 435.994C188.758 387.881 165.502 308.381 107.636 302.884C96.6461 301.84 80.065 310.512 72.3443 319.049C31.6905 364.004 23.6987 446.802 50.6582 500.392C54.9664 508.361 58.852 513.984 63.9916 521.028C71.7937 531.722 84.1873 541.581 86.3898 554.675C89.2217 571.512 87.5115 591.534 87.1334 608.643C86.4712 638.609 84.7314 668.538 84.6601 698.467C62.8084 704.966 43.4983 719.104 38.9917 742.625C38.2974 745.668 39.6051 752.958 38.751 755.531C33.9194 770.089 29.8034 783.723 32.5379 799.303C33.1535 802.811 35.3988 808.159 35.7493 811.605C36.4246 818.245 34.3911 825.984 35.3532 832.738C38.2017 859.476 49.7142 883.328 62.62 906.447C59.2915 917.368 56.6196 930.193 54.1183 941.137C40.4909 1000.76 28.2432 1066.24 58.5461 1122.95C67.5387 1141.32 77.585 1158.98 93.9616 1171.31C129.127 1197.77 166.454 1191.88 197.036 1162.67C198.536 1161.23 213.987 1156.24 218.185 1154.01C243.18 1140.77 260.015 1122.18 277.191 1099.94C298.173 1148.8 310.139 1173.45 278.252 1223.17C215.916 1320.36 183.534 1420.44 183.777 1536L0 1536L0 0Z"/><path fill="#3A863E" d="M311.817 1185.49C399.259 1232.1 559.857 1226.42 653.176 1197.46C655.177 1196.84 657.348 1196.19 659.303 1195.43L664.777 1206.47C635.741 1207.23 610.486 1219.43 590.715 1240.47C576.646 1255.45 559.511 1279.88 581.931 1295.4C575.815 1306.92 570.083 1322.77 583.591 1330.84C589.622 1334.44 595.492 1331.6 598.728 1333.51C601.871 1370.98 657.718 1336.92 676.599 1331.25C678.247 1350.17 684.085 1378.94 687.448 1398.52C693.857 1446.32 698.742 1487.68 699.202 1536L201.52 1536C202.168 1480.52 206.478 1433.46 222.423 1379.65C231.701 1339.79 258.687 1289.16 278.735 1253.56C291.332 1231.19 304.602 1210.31 311.817 1185.49Z"/><path fill="#FEAD29" d="M222.423 1379.65C346.343 1445.19 498.565 1461.01 632.554 1419.23C642.923 1416 678.84 1403.82 687.448 1398.52C693.857 1446.32 698.742 1487.68 699.202 1536L201.52 1536C202.168 1480.52 206.478 1433.46 222.423 1379.65Z"/><path fill="#C53326" d="M716.277 1536C713.729 1473.03 707.421 1411.27 694.104 1349.64C692.734 1343.3 691.426 1336.67 690.482 1330.27C719.482 1337.06 731.165 1363.65 772.098 1348.66C797.144 1382.93 814.485 1435.91 819.57 1477.93C821.841 1496.7 821.727 1517.16 822.76 1536L716.277 1536Z"/><path fill="#D5804A" d="M440.825 297.169C446.95 298.851 458.257 303.55 465.092 305.749C490.566 313.946 510.738 315.187 536.838 310.681C545.314 346.907 572.073 364.254 604.036 378.407C616.788 384.054 631.202 388.546 642.283 396.29C685.798 424.96 650.816 469.301 655.735 507.77C657.722 519.236 669.993 533.966 683.311 526.474C702.202 515.849 711.573 476.692 740.763 493.891C745.803 496.861 751.682 510.268 752.464 516.102C755.049 535.393 747.136 555.367 736.297 571.041C724.677 566.637 708.938 570.464 716.588 586.346L717.013 587.207C709.493 593.423 694.624 576.546 686.738 577.46C683.531 577.869 681.804 580.161 680.427 582.822C675.879 591.611 671.719 600.584 667.278 609.426C659.745 624.424 650.194 637.679 639.745 650.732C607.523 689.678 545.234 738.068 490.697 731.426C447.471 726.161 402.285 682.929 376.505 651.118C338.787 604.109 340.901 567.55 347.662 512.086C359.89 411.768 354.885 362.75 440.825 297.169Z"/><path fill="#16120F" d="M590.204 566.324L589.569 565.797C585.212 562.209 574.499 557.41 575.008 551.17C583.318 542.876 622.56 566.133 609.717 583.515C604 586.247 601.499 575.704 597.912 571.419C590.197 582.635 584.924 599.567 579.786 612.354C565.894 647.132 542.29 683.042 502.635 690.346C449.335 700.164 423.852 654.383 409.561 611.777C403.813 594.64 401.624 587.419 387.625 575.846C386.136 579.886 384.844 586.283 379.475 584.691C369.219 573.128 388.268 550.826 399.856 558.197C400.601 562.988 395.654 565.085 392.006 567.659C399.003 572.259 414.397 581.379 422.2 584.098C443.028 578.356 457.603 580.31 477.924 585.59C504.273 577.193 530.414 577.411 557.712 581.028C566.443 578.032 581.253 570.569 590.204 566.324Z"/><path fill="#C53326" d="M477.924 585.59C504.273 577.193 530.414 577.411 557.712 581.028C513.554 603.501 466.665 607.274 422.2 584.098C443.028 578.356 457.603 580.31 477.924 585.59Z"/><path fill="#FFE6BD" d="M574.109 588.124C574.449 594.409 554.779 615.023 549.152 619.874C529.782 636.573 506.078 645.921 480.228 643.636C457.201 641.6 443.297 632.863 428.757 615.656C423.238 608.395 419.795 602.406 415.779 594.311C475.376 622.761 514.926 614.186 574.109 588.124Z"/><path fill="#C53326" d="M559.534 626.909C560.195 627.553 559.898 627.233 560.045 628.515C548.326 658.245 512.799 684.485 480.695 678.375C461.849 674.788 451.961 668.156 440.662 653.2C436.085 646.588 433.971 641.997 431.166 634.719C448.062 647.626 456.895 653.827 479.701 655.515C512.236 657.922 535.403 647.796 559.534 626.909Z"/><path fill="#16120F" d="M477.154 451.042C485.21 450.977 483.992 459.483 483.829 465.336C483.144 489.917 476.113 516.147 457.532 533.367C445.83 544.213 452.695 550.14 464.573 554.751C475.043 558.816 487.664 556.128 497.067 550.575C501.799 547.88 508.515 540.672 513.827 543.154C516.024 548.072 512.503 552.871 509.679 556.539C502.978 562.429 497.158 566.232 488.169 568.154C470.225 571.991 443.802 567.14 438.396 546.775C435.575 536.147 448.608 523.202 455.553 515.935C471.107 499.66 466.657 466.988 477.154 451.042Z"/><path fill="#16120F" d="M567.382 462.153C589.052 460.445 600.193 468.374 613.981 483.957C620.429 480.288 627.089 470.108 633.798 471.415C638.597 477.72 631.706 488.062 627.86 493.358C616.593 508.868 608.414 501.363 597.459 492.185C576.07 479.195 555.741 481.141 538.082 498.707C535.089 501.684 533.093 503.179 528.804 503.863C526.39 503.172 527.272 503.862 525.986 501.837C524.687 491.554 535.681 478.751 543.213 472.902C550.786 467.023 558.239 464.26 567.382 462.153Z"/><path fill="#16120F" d="M570.184 390.227C591.229 388.193 608.577 394.94 622.406 411.147C626.33 415.744 639.079 433.515 632.74 438.41C631.869 438.5 630.117 438.574 629.451 438.122C621.172 432.5 616.254 426.794 607.306 421.507C593.112 413.819 579.141 410.284 563.21 415.272C558.892 416.488 539.699 425.529 535.962 420.637C521.941 402.28 564.066 391.227 570.184 390.227Z"/><path fill="#16120F" d="M414.37 452.455C434.336 450.525 450.62 466.736 457.073 484.126C458.603 488.249 459.822 492.759 458.038 496.985C451.414 501.88 442.694 486.085 438.104 482.202C430.556 475.816 421.929 474.955 412.415 475.517C405.685 476.932 397.752 480.528 392.593 484.957C376.842 498.479 361.602 461.144 372.342 455.276C376.506 455.974 381.722 464.072 384.938 467.781C397.049 460.9 396.39 455.53 414.37 452.455Z"/><path fill="#16120F" d="M412.009 373.713C431.433 371.652 454.691 385.908 459.281 406.286C459.675 408.034 458.575 409.137 457.551 410.29C452.039 412.781 445.823 409.452 440.955 406.881C433.252 402.814 427.485 399.945 418.776 398.4C400.731 396.797 390.707 401.415 378.88 413.256C377.856 414.281 376.626 413.803 375.372 413.47C370.789 408.228 378.448 396.089 381.76 391.329C388.938 381.015 399.748 375.605 412.009 373.713Z"/><path fill="#16120F" d="M728.011 507.01C733.527 506.983 739.961 508.794 740.803 515.106C738.495 520.703 730.806 521.366 726.809 524.839C724.071 527.218 730.052 536.071 730.217 540.132C730.378 546.891 727.327 555.538 723.015 560.752C718.934 565.688 715.468 566.271 710.944 562.124C707.928 547.744 720.662 551.462 718.7 539.462C715.164 534.76 712.282 540.281 706.221 538.785C697.305 531.606 715.917 514.141 721.528 509.986C723.264 508.7 725.97 507.74 728.011 507.01Z"/><path fill="#FEAD29" d="M299.454 907.745C397.638 944.269 532.905 950.054 636.377 938.817C630.364 972.061 628.382 1005.79 628.553 1039.52C629.215 1086.04 638.836 1139.92 653.772 1183.49C563.326 1206.47 462.474 1213.61 370.897 1191.95C352.024 1187.49 330.782 1180.9 313.67 1171.66C313.719 1134.74 296.87 1109.44 284.193 1075.86C276.554 1055.63 272.736 1041.23 269.834 1020.04C265.04 985.362 282.076 937.108 299.454 907.745Z"/><path fill="#C53326" d="M299.454 907.745C397.638 944.269 532.905 950.054 636.377 938.817C630.364 972.061 628.382 1005.79 628.553 1039.52C511.681 1058.1 382.821 1054.22 270.581 1014.32C269.57 1015.69 269.849 1018.21 269.834 1020.04C265.04 985.362 282.076 937.108 299.454 907.745Z"/><path fill="#C53326" d="M909.095 944.503C910.374 944.569 911.608 944.973 912.456 946.022C943.189 984.005 986.168 1043.09 990.798 1091.47C994.496 1130.1 945.732 1190.37 921.307 1217.43C908.377 1167.64 851.738 1129.59 801.476 1127.93C802.952 1124.71 805.237 1120.99 807.042 1117.87C826.993 1087.46 858.498 1071.58 894.812 1072.63C899.157 1072.76 905.374 1072.33 907.522 1067.86C906.464 1063.15 894.195 1061.1 890.178 1061.02C861.589 1060.45 840.118 1066.99 818.219 1086.05L814.827 1084.91C779.629 1072.72 760.858 1053.46 744.939 1020.66C777.278 1008.21 809.929 987.456 841.166 972.055C862.761 961.408 884.782 947.966 909.095 944.503Z"/><path fill="#D5804A" d="M175.048 703.317C186.876 702.055 185.791 717.281 184.807 724.794C183.773 732.692 182.814 740.796 182.844 748.76C182.902 763.824 186.662 778.366 189.011 793.151C192.961 818.625 188.675 845.437 175.064 867.512C168.997 877.776 159.996 885.922 154.484 895.299L154.085 895.991C155.095 918.894 161.501 954.991 164.885 977.999C168.459 1002.3 173.36 1016.15 171.035 1042.79C168.682 1071.12 157.828 1103.74 135.559 1122.69C107.076 1146.94 79.1815 1136.06 66.2429 1103.21C47.4035 1055.38 55.3564 1006.88 65.0053 958.069C68.2531 941.638 74.0211 921.34 75.5431 905.226C66.6941 882.63 51.798 858.805 49.5949 833.869C48.8715 817.1 50.9593 805.872 45.2902 789.725C44.6 787.759 55.37 738.418 56.0269 736.975C68.4283 709.726 123.907 702.571 144.811 723.077C154.2 732.288 156.749 742.72 157.145 755.416C141.232 745.092 131.584 743.13 113.138 743.023C103.659 743.151 76.1863 743.628 74.1167 755.507C73.7793 757.444 74.6617 758.3 75.6983 759.623C80.9755 762.233 90.6598 758.471 96.4705 757.562C117.387 754.289 150.134 757.142 160.098 779C162.366 783.975 161.685 788.912 161.063 794.148C132.654 780.125 109.02 780.206 78.8538 788.805C70.6264 791.15 68.5458 799.978 76.7187 801.739C82.45 801.397 89.686 799.134 95.2487 798.189C120.698 793.868 171.877 794.95 157.563 835.207C151.144 828.48 141.654 823.375 131.53 823.071C122.59 822.803 82.2745 825.532 82.6268 838.408C82.9012 848.434 106.169 839.308 113.096 838.643C122.553 837.735 136.354 835.758 145.376 842.184C159.061 853.95 153.211 870.391 144.231 882.624C156.031 855.308 124.997 867.15 109.918 869.145C104.288 869.89 90.5318 872.844 86.8134 876.183C82.2388 884.997 84.7707 943.86 83.4044 957.344C81.9372 977.192 99.3388 994.426 118.682 992.51C151.993 989.209 150.982 958.434 147.595 933.11C146.098 921.927 145.459 908.812 144.805 897.663C162.504 883.859 169.767 870.181 165.191 847.879C175.849 834.496 176.432 822.406 169.942 806.918C177.629 791.827 176.727 781.198 168.914 766.38C172.216 749.541 169.837 738.439 162.781 723.176L162.893 722.59C164.788 713.171 167.176 708.52 175.048 703.317Z"/><path fill="#FEAD29" d="M796.379 820.589C796.784 820.575 797.19 820.56 797.594 820.576C815.019 821.257 897.377 909.47 913.42 927.193C874.883 934.578 842.619 955.807 808.329 973.393C783.864 985.94 758.907 997.892 733.497 1008.4C707.649 1019.87 671.354 1031.58 644.15 1038.57C643.442 995.321 647.103 955.274 656.025 912.925C658.637 900.53 661.121 888.067 665.203 876.054C693.692 868.095 722.358 853.301 749.082 840.567C764.861 833.048 779.331 824.789 796.379 820.589Z"/><path fill="#D5804A" d="M621.854 696.601C622.462 699.107 621.54 705.93 621.299 709.005C620.378 720.617 619.58 732.126 619.967 743.78C620.489 759.48 625.076 765.299 639.469 770.267C622.828 799.59 610.03 829.937 601.06 862.463C599.437 868.351 597.688 874.231 595.864 880.06C533.745 896.729 454.073 894.77 392.905 874.853C385.493 872.39 379.228 870.325 372.083 867.228C388.274 837.228 404.617 811.115 425.622 784.171C425.91 783.53 433.224 774.825 433.41 774.895C453.962 782.568 449.978 763.632 454.898 747.012C513.561 787.251 579.185 736.995 621.854 696.601Z"/><path fill="#D5804A" d="M810.366 1144.53C849.946 1149.83 890.928 1178.43 905.109 1216.43C877.947 1249.36 834.959 1283.71 801.721 1310.28C787.946 1320.22 771.881 1335.25 754.708 1337.77C727.958 1341.69 716.027 1317.5 689.921 1316C662.055 1314.41 637.563 1340.28 612.072 1337.01C620.647 1312.36 646.985 1297.55 671.547 1293.2C676.851 1292.26 696.299 1293.99 693.662 1284.78C685.72 1276.21 666.918 1280.67 656.775 1283.29C643.496 1286.72 631.849 1293.18 620.932 1301.33C614.881 1306.18 598.159 1324.11 589.292 1319.25C586.674 1313.55 592.533 1305.09 595.628 1300.8C613.369 1276.22 642.679 1257.93 673.644 1258.52C678.06 1258.61 683.345 1257.64 683.538 1252.06C679.782 1245.19 666.518 1245.4 659.886 1246.11C638.416 1248.43 618.99 1258.26 602.606 1272.05C598.681 1275.35 590.519 1282.77 585.644 1278.62C583.959 1273.72 587.506 1266.75 590.223 1262.73C606.026 1239.33 634.641 1220.82 663.402 1220.67C674.823 1220.61 684.362 1228.9 688.372 1213.05C695.266 1212.74 739.496 1261.51 749.251 1266.75C751.962 1268.21 752.738 1268.3 755.463 1267.39C760.535 1260.99 751.157 1253.59 746.923 1249.36C769.016 1224.87 796.516 1174.94 810.366 1144.53Z"/><path fill="#684830" d="M103.679 317.391C121.1 316.004 137.12 328.817 146.42 342.393C158.116 359.466 164.641 381.922 167.277 402.256C170.981 430.828 169.6 462.363 155.094 487.943C149.855 497.218 143.899 505.195 137.476 513.653C129.572 524.061 121.132 536.357 119.809 549.693C118.394 563.957 119.341 578.807 119.421 593.133C119.875 618.229 121.258 643.459 121.502 668.554C121.566 675.07 123.136 688.884 122.068 694.792L120.829 695.185C114.063 695.142 107.092 695.303 100.309 695.378C100.452 665.423 102.542 635.538 102.956 605.422C102.441 585.895 107.363 553.154 97.7228 535.783C83.519 510.189 62.9242 493.663 56.7297 462.714C48.6942 422.566 54.1357 375.372 74.4892 339.366C81.0765 327.712 90.6993 320.424 103.679 317.391Z"/><path fill="#C53326" d="M685.581 183.932C712.309 182.396 714.985 212.698 720.252 230.398C720.585 231.519 722.218 231.486 723.186 231.546C725.168 230.273 726.874 227.005 728.013 224.547C739.324 200.121 784.258 182.328 788.243 221.331C789.806 236.627 779.338 249.987 765.516 255.852C762.319 257.209 753.951 260.443 751.874 262.738C752.39 272.04 772.585 264.614 778.589 265.916C826.56 276.321 811.679 335.643 763.612 313.605C758.712 311.358 748.74 303.274 744.188 306.955C744.178 315.166 772.842 329.868 762.64 354.803C747.827 375.491 719.392 365.512 713.826 343.112C712.745 338.761 711.449 326.014 709.23 323.445C705.66 323.596 703.843 329.85 702.541 332.875C693.832 351.363 675.344 366.756 657.483 348.79C635.26 326.436 673.898 300.335 674.302 297.032C669.008 292.014 645.503 295.454 633.233 282.844C613.92 262.997 625.988 235.918 654.004 240.788C659.996 241.829 673.749 248.378 677.669 243.094C675.442 236.837 668.92 230.53 666.196 223.756C658.535 204.713 663.648 187.836 685.581 183.932Z"/><path fill="#16120F" d="M707.981 244.703C724.123 242.239 739.238 253.238 741.854 269.353C744.47 285.467 733.612 300.681 717.518 303.448C701.209 306.252 685.744 295.219 683.093 278.888C680.441 262.558 691.622 247.2 707.981 244.703Z"/><path fill="#FEAD29" d="M709.232 255.008C719.524 252.935 729.551 259.589 731.637 269.876C733.723 280.164 727.08 290.196 716.792 292.294C706.487 294.395 696.432 287.739 694.342 277.435C692.253 267.13 698.922 257.085 709.232 255.008Z"/><path fill="#C53326" d="M176.256 952.47C202.181 972.869 221.506 990.926 253.382 1004.47C253.238 1032.67 260.06 1057.09 269.595 1083.21C250.879 1108.54 236.802 1126.38 208.33 1140.87C211.096 1134.93 218.889 1118.17 212.649 1113.18C206.628 1113.33 202.063 1126.54 199.053 1131.47C180.815 1161.32 155.194 1179.99 119.655 1167.11C108.299 1162.4 103.209 1158.1 94.3548 1150.19C130.694 1157.04 157.623 1127.09 171.659 1097.27C189.028 1060.36 187.777 1030.94 181.609 991.985C188.479 1003.2 192.053 1010.65 196.742 1023.25C200.64 1031.63 201.033 1048.13 206.063 1055.17C212.589 1059.16 217.985 1055.75 217.133 1047.88C213.783 1016.95 200.487 988.048 178.057 966.668C177.37 962.031 176.839 957.141 176.256 952.47Z"/><path fill="#FFE6BD" d="M738.224 1043.63C740.941 1045.93 748.186 1056.79 751.115 1060.16C766.112 1077.37 783.186 1090.74 804.556 1098.7C789.634 1113.96 772.477 1138.74 789.48 1158.6C774.063 1185.22 760.268 1209.45 742.583 1234.81L738.842 1239.76C718.186 1219.29 702.077 1200.29 674.041 1190.88C677.954 1179.83 691.065 1156.95 696.702 1144.14C711.203 1111.19 725.96 1077.46 738.224 1043.63Z"/><path fill="#FEAD29" d="M275.69 817.24C276.238 817.347 312.119 847.821 314.465 850.352C308.286 862.358 298.585 877.119 291.689 889.208C272.239 923.306 260.993 949.898 253.974 988.144L234.461 976.132C213.991 962.328 200.698 951.841 182.095 935.538C207.741 898.7 245.138 849.964 275.69 817.24Z"/><path fill="#FEAD29" d="M365.953 879.009C413.826 904.516 484.981 909.503 538.735 904.994C556.767 903.481 574.312 900.341 592.022 896.853C590.35 903.983 588.807 923.897 587.235 927.906C571.087 929.271 551.128 929.321 534.945 929.343C472.64 929.426 412.174 922.711 351.547 908.399C355.724 897.747 360.344 888.939 365.953 879.009Z"/><path fill="#C53326" d="M726.059 1027.59L726.489 1028.44C725.127 1032.75 723.605 1037.01 721.991 1041.24C705.026 1085.58 686.732 1129.52 665.79 1172.14C663.922 1167.58 662.378 1162.43 660.848 1157.71C650.67 1124.3 646.596 1089.52 643.749 1054.83C672.915 1046.98 698.024 1039.33 726.059 1027.59Z"/><path fill="#C53326" d="M657.055 770.384C666.867 771.843 676.313 773.2 686.183 774.339C668.496 810.151 644.141 884.025 638.706 923.86L628.085 925.072C623.402 926.026 607.115 926.908 602.008 927.122C613.017 870.795 627.433 820.485 657.055 770.384Z"/><path fill="#C53326" d="M398.733 765.911C405.698 765.674 414.873 766.876 422.013 767.637C386.735 810.58 361.226 854.041 339.01 905.006L331.021 902.625L307.03 894.588C321.844 866.866 373.688 775.681 398.733 765.911Z"/><path fill="#D5804A" d="M701.42 777.379C729.385 784.736 751.958 793.521 775.595 810.526C758.006 819.531 741.105 828.01 723.226 836.499C704.725 845.188 689.325 852.077 669.932 858.766C678.532 830.159 689.397 804.596 701.42 777.379Z"/><path fill="#FEAD29" d="M724.852 576.4C737.116 577.217 747.528 593.209 752.454 603.011C762.827 624.004 764.419 645.734 757.388 668.077C750.22 690.853 729.854 707.361 705.437 699.148C679.479 690.417 669.038 659.187 671.637 634.107C672.474 626.036 674.388 620.006 677.191 612.423C679.382 607.462 687.523 590.821 693.378 590.882C694.012 591.307 697.437 593.795 697.109 594.458C686.467 615.982 681.156 634.117 687.714 658.477C691.692 673.253 708.163 689.105 725.325 681.827C756.02 668.81 755.022 618.081 735.497 595.92C732.393 592.351 724.158 584.804 722.95 581.57C722.824 579.02 723.446 578.513 724.852 576.4Z"/><path fill="#684830" d="M129.467 879.144L130.947 879.339C131.861 883.534 130.99 891.546 131.186 896.352C131.281 908.315 132.449 920.182 132.878 932.122C133.257 942.628 136.151 956.888 132.048 966.61C127.41 977.6 117.123 978.694 107.18 974.455C94.2394 966.227 98.5489 941.538 98.985 927.642L100.023 885.716C109.429 884.244 120.155 881.451 129.467 879.144Z"/><path fill="#D5804A" d="M370.009 765.279C371.831 765.085 373.02 764.72 374.58 765.596C352.195 792.399 343.035 805.774 324.049 835.177C318.291 832.414 313.01 828.701 307.946 824.853C301.802 819.861 297.621 815.799 292.059 810.182C311.112 785.426 339.018 768.984 370.009 765.279Z"/><path fill="#FFE6BD" d="M723.841 601.722C725.118 602.688 726.498 604.752 727.545 606.27C738.897 622.725 741.846 654.654 724.381 668.113C721.01 670.71 716.73 670.618 712.606 669.671C690.382 658.296 696.195 621.122 707.158 603.973C714.111 603.971 717.21 603.765 723.841 601.722Z"/><path fill="#FEAD29" d="M323.383 560.949C325.112 560.709 325.727 561.176 327.318 561.892C331.392 568.958 316.239 574.104 311.859 578.464C301.092 589.185 297.57 600.55 296.642 615.298C294.609 647.579 327.594 673.807 354.092 647.6L360.135 656.07L353.43 661.702C342.687 671.585 324.445 673.948 311.341 667.764C283.111 654.441 279.128 614.914 291.528 589.378C298.75 574.504 307.998 566.386 323.383 560.949Z"/><path fill="#FFE6BD" d="M328.272 581.788C329.8 587.671 330.365 593.694 331.949 599.505C335.33 611.908 340.703 623.272 346.289 634.776C341.247 642.833 338.143 644.487 328.784 645.073C300.364 638.355 307.147 595.91 328.272 581.788Z"/><path fill="#D5804A" d="M333.543 494.856L334.022 495.36C334.449 499.187 329.069 541.295 328.13 546.213L327.006 546.882C322.077 529.052 323.317 510.557 333.543 494.856Z"/></svg>