<?xml version="1.0" encoding="utf-8" ?><svg xmlns="http://www.w3.org/2000/svg" xmlns:xlink="http://www.w3.org/1999/xlink" width="1024" height="1536" viewBox="0 0 1024 1536"><path fill="#151C1F" d="M0 0L1024 0L1024 1098.84L1024 1536L1009.17 1536L945.924 1536L924.755 1536L389.244 1536L372.127 1536L235.026 1536L213.209 1536L0 1536L0 0Z"/><path fill="#FEFEFD" d="M0 0L1024 0L1024 1098.84C1020.74 1083.46 1017.85 1068.16 1012.81 1053.28C1002.13 1021.74 977.504 998.332 950.076 980.602C914.764 957.777 873.412 942.649 833.288 930.357C833.216 918.017 834.887 902.594 827.455 892.896C856.637 855.029 869.59 820.01 874.587 772.277C879.904 772.059 887.902 771.922 892.819 770.194C967.124 744.094 977.311 620.568 915.879 575.772C938.901 541.54 927.365 493.92 893.697 471.073C884.147 464.593 874.145 461.45 862.85 459.597C863.911 441.364 864.325 422.227 866.741 404.203C872.46 361.541 883.647 319.53 894.673 277.994C900.893 254.564 910.047 230.508 909.034 206.076C908.132 187.976 898.472 167.974 886.339 154.847C832.711 96.8243 708.59 78.3878 632.597 74.7141C538.236 70.1524 388.964 72.2049 313.332 136.322C293.945 152.757 280.142 180.328 279.295 205.652C279.197 227.103 286.412 249.692 291.778 270.543C298.376 296.181 303.909 321.798 310.146 347.405C319.729 386.752 318.752 418.136 317.988 457.813C263.4 462.018 232.98 527.604 261.83 573.795C253.108 581.939 246.571 588.686 239.869 598.607C209.118 644.125 213.305 708.918 250.346 749.628C263.483 764.065 278.058 770.422 297.32 771.116C300.473 816.377 312.275 853.833 339.94 890.349C330.107 901.207 332.64 915.111 332.381 930.063C309.052 935.97 281.551 946.23 260.435 957.504C259.178 950.328 255.997 935.579 256.126 928.762C256.643 901.333 260.022 872.535 234.372 854.227C214.274 839.881 192.909 844.347 174.848 858.774C170.053 857.312 162.755 854.846 158.078 853.731C158.039 811.964 156.56 770.23 156.646 728.373C156.693 705.551 154.183 679.16 157.092 656.453C159.821 635.153 187.927 619.088 196.911 596.825C204.28 578.566 210.877 562.924 211.968 542.357C215.068 486.44 205.32 418.934 166.455 376.036C143.776 351.003 110.97 354.11 88.996 378.34C52.3424 418.758 38.5243 481.563 38.0163 534.852C38.1559 564.899 48.0762 598.557 67.7001 621.272C74.6784 629.349 91.3361 645.895 92.7207 656.256C95.2529 675.203 93.1927 702.472 93.169 721.947C93.1146 766.66 91.3143 812.07 91.5559 856.675C70.2125 863.924 52.6533 874.826 42.0107 895.631C36.0815 907.222 36.0376 918.866 34.5135 931.46C33.037 940.968 28.7603 948.811 27.7227 959.682C26.0576 972.986 28.9454 985.68 30.4294 998.788C31.2494 1006.03 30.823 1014.5 31.1743 1021.92C32.5536 1051.06 41.8438 1076.19 56.2155 1101.34C46.6019 1110.67 38.8732 1118.33 31.8897 1129.9C21.3361 1147.15 17.2857 1164.91 17.0141 1184.95C16.1883 1245.9 17.2214 1306.82 17.025 1367.77C16.9724 1384.09 17.0168 1395.95 20.4731 1411.99C32.5912 1468.23 78.4094 1511.78 137.281 1512.53C164.672 1512.82 186.998 1504.02 208.804 1488.02C210.216 1503.2 212.351 1521 213.209 1536L0 1536L0 0Z"/><path fill="#FEFEFD" d="M831.39 952.424C882.168 969.627 962.046 998.719 987.699 1049.05C995.185 1063.74 1001.46 1095.17 1004.14 1112.18C1015.1 1181.87 1018.04 1252.78 1018 1323.25C1017.97 1379.58 1016.77 1435.95 1012.59 1492.14C1011.54 1506.26 1010.95 1522.07 1009.17 1536L945.924 1536L924.755 1536L389.244 1536C387.77 1511.58 387.296 1486.95 386.615 1462.5C384.545 1388.16 384.743 1313.88 384.955 1239.53L386.161 1144.87C386.404 1126.6 386.405 1108.26 387.56 1090.04C387.971 1080.03 394.872 1075 404.482 1074.99C512.596 1074.92 623.535 1077.3 726.854 1040.5C770.204 1025.06 818.44 1000.41 831.39 952.424Z"/><path fill="#151C1F" d="M924.755 1536C935.105 1428.06 938.978 1319.55 930.189 1211.37C929.566 1203.69 923.939 1158.79 925.709 1156C943.597 1127.83 947.744 1188.09 948.462 1194.33C958.966 1285.57 958.352 1379.38 951.605 1470.83L948.178 1512.76C947.634 1519.08 946.967 1529.94 945.924 1536L924.755 1536Z"/><path fill="#151C1F" d="M456.181 1242.66C475.485 1240.67 492.787 1254.61 494.926 1273.9C497.066 1293.18 483.242 1310.58 463.969 1312.86C444.498 1315.16 426.877 1301.16 424.715 1281.68C422.553 1262.2 436.678 1244.68 456.181 1242.66Z"/><path fill="#EEB97D" d="M454.936 1258.95C465.414 1256.23 476.112 1262.52 478.823 1273C481.534 1283.48 475.231 1294.17 464.749 1296.87C454.279 1299.57 443.603 1293.27 440.895 1282.81C438.187 1272.34 444.471 1261.66 454.936 1258.95Z"/><path fill="#151C1F" d="M452.761 1106.04C471.829 1102.21 490.403 1114.52 494.311 1133.56C498.218 1152.61 485.989 1171.23 466.954 1175.22C447.807 1179.23 429.048 1166.91 425.117 1147.75C421.186 1128.59 433.581 1109.89 452.761 1106.04Z"/><path fill="#EEB97D" d="M455.629 1121.64C466.106 1119.32 476.506 1125.84 478.98 1136.28C481.455 1146.72 475.087 1157.21 464.683 1159.84C457.816 1161.57 450.547 1159.47 445.662 1154.34C440.777 1149.22 439.033 1141.86 441.097 1135.08C443.162 1128.31 448.715 1123.17 455.629 1121.64Z"/><path fill="#151C1F" d="M452.964 1380.51C472.142 1376.8 490.691 1389.36 494.361 1408.54C498.032 1427.73 485.43 1446.24 466.236 1449.87C447.1 1453.49 428.647 1440.94 424.988 1421.81C421.328 1402.69 433.844 1384.21 452.964 1380.51Z"/><path fill="#EEB97D" d="M454.83 1396.24C465.282 1393.55 475.941 1399.82 478.671 1410.25C481.4 1420.69 475.172 1431.37 464.741 1434.14C454.253 1436.93 443.5 1430.66 440.756 1420.16C438.011 1409.67 444.321 1398.94 454.83 1396.24Z"/><path fill="#151C1F" d="M705.219 1106.09C724.379 1102.2 743.056 1114.61 746.879 1133.78C750.701 1152.95 738.213 1171.58 719.024 1175.33C699.938 1179.06 681.43 1166.65 677.628 1147.59C673.826 1128.52 686.162 1109.97 705.219 1106.09Z"/><path fill="#EEB97D" d="M707.973 1121.62C714.9 1120.05 722.137 1122.34 726.902 1127.6C731.668 1132.87 733.221 1140.3 730.965 1147.03C728.708 1153.76 722.993 1158.76 716.016 1160.09C705.483 1162.1 695.28 1155.3 693.086 1144.81C690.891 1134.31 697.515 1124 707.973 1121.62Z"/><path fill="#151C1F" d="M708.535 1242.66C727.871 1240.68 745.17 1254.7 747.232 1274.02C749.295 1293.35 735.346 1310.7 716.027 1312.85C696.589 1315.01 679.098 1300.96 677.023 1281.51C674.947 1262.07 689.078 1244.65 708.535 1242.66Z"/><path fill="#EEB97D" d="M707.238 1258.94C717.688 1256.11 728.456 1262.28 731.304 1272.72C734.152 1283.17 728.005 1293.94 717.565 1296.81C707.097 1299.68 696.284 1293.52 693.429 1283.05C690.573 1272.58 696.76 1261.78 707.238 1258.94Z"/><path fill="#151C1F" d="M705.23 1380.57C717.686 1378.04 730.546 1382.39 738.896 1391.97C747.247 1401.56 749.798 1414.89 745.575 1426.87C741.352 1438.86 731.008 1447.65 718.494 1449.89C699.467 1453.29 681.242 1440.76 677.61 1421.78C673.978 1402.8 686.291 1384.43 705.23 1380.57Z"/><path fill="#EEB97D" d="M707.471 1396.17C717.924 1393.5 728.579 1399.75 731.348 1410.17C734.116 1420.6 727.963 1431.31 717.56 1434.17C707.024 1437.06 696.147 1430.82 693.343 1420.26C690.54 1409.7 696.885 1398.88 707.471 1396.17Z"/><path fill="#FEFEFD" d="M263.128 980.76C284.693 969.161 310.667 959.279 334.063 951.991C348.462 1008.78 417.345 1035.63 468.091 1049.26C478.965 1052.19 490.332 1054.17 501.129 1057.29C470.372 1057.83 439.703 1058.16 408.934 1057.93C403.887 1057.89 400.347 1058.06 395.002 1058.92C382.663 1060.9 373.073 1072.69 370.811 1084.53C368.384 1113.93 369.354 1145.27 368.888 1174.68C367.334 1272.72 367.45 1370.7 369.917 1468.71C370.472 1490.99 371.748 1513.87 372.127 1536L235.026 1536C233.622 1517.4 231.19 1487.89 228.189 1469.79C260.716 1424.87 259.601 1399.98 259.523 1346.24L259.514 1276.49L260.016 1215.07C260.194 1198.05 260.586 1177.99 258.249 1161.27C255.121 1138.89 236.368 1112.46 218.798 1098.77C249.666 1064.74 263.05 1026.18 263.128 980.76Z"/><path fill="#EEB97D" d="M542.958 465.323C553.283 464.493 573.768 464.959 584.688 464.973C655.93 465.062 756.228 473.155 817.903 510.598C823.726 556.28 826.236 602.206 829.694 648.084C830.154 650.774 831.277 656.323 833.591 657.944C845.287 666.136 850.105 659.072 852.481 647.37C853.884 640.459 852.425 632.327 853.958 625.627C857.535 609.997 869.01 597.67 885.275 595.715C915.353 592.098 928.397 622.599 931.41 647.43C934.656 676.181 928.64 708.028 910.63 731.226C900.621 743.499 885.893 754.513 869.408 748.19C866.077 747.545 856.413 742.802 854.58 747.456C853.551 750.519 853.029 754.701 852.997 757.908C852.324 826.251 818.947 888.624 757.555 920.839C731.79 934.359 707.66 941.189 678.188 946.392C684.559 940.238 698.568 926.509 695.456 917.128C693.035 909.829 685.171 914.271 681.727 918.536C666.224 937.734 649.246 948.268 626.515 957.222C584.239 970.969 535.461 962.461 501.074 933.637C496.942 931.1 483.504 914.13 479.795 914.29C457.885 915.235 486.729 944.388 489.361 947.252C454.695 939.72 421.948 929.338 392.234 909.27C342.566 875.727 316.313 815.589 319.477 756.463C320.111 744.618 319.525 741.612 306.933 746.405C287.591 753.767 269.496 743.242 259.025 726.874C243.071 702.065 238.172 668.04 243.588 639.125C248.032 616.227 262.193 590.087 289.653 595.679C306.686 599.206 318.013 616.282 317.393 633.21C317.157 639.669 316.224 650.988 320.267 656.322C326.167 664.105 338.052 660.829 339.202 650.559C344.535 602.926 346.42 554.73 352.905 507.201C362.368 501.623 376.458 496.135 386.702 492.366C437.764 473.579 489.252 468.133 542.958 465.323Z"/><path fill="#151C1F" d="M549.783 573.708C556.241 573.993 559.733 576.7 559.817 583.489C559.977 596.407 559.906 609.382 559.778 622.296C559.729 627.289 559.993 634.106 555.574 637.359C547.433 643.438 539.522 647.316 532.717 655.221C519.578 670.605 516.778 691.552 533.869 705.354C562.748 728.675 611.718 728.776 637.39 700.387C644.782 692.212 646.014 678.538 641.951 668.603C640.348 664.683 634.528 659.78 634.43 655.042C634.54 651.861 634.613 650.294 636.61 647.892C641.861 644.65 648.42 649.389 652.079 653.184C660.144 661.546 660.496 673.202 660.193 684.126C669.246 685.132 677.696 686.609 686.189 689.861C709.601 698.955 732.317 714.48 758.664 708.599C776.397 704.64 780.646 690.842 787.901 676.755C788.917 674.783 790.92 674.206 792.964 673.904C801.823 676.699 806.585 693.987 807.127 702.148C810.999 760.357 763.22 793.765 710.992 798.149C698.154 799.956 684.441 798.498 671.812 796.014C629.509 830.55 537.12 831.626 495.343 795.967C442.231 804.904 374.876 787.791 360.015 727.686C357.144 714.223 356.85 691.725 365.091 679.864C377.377 662.18 381.219 686.136 384.619 691.606C405.951 725.919 450.122 702.687 477.799 690.497C485.95 686.908 496.884 685.092 505.685 684.045C506.118 656.214 522.219 640.466 543.157 625.425C543.009 612.176 542.662 598.338 542.996 585.064C543.136 579.464 544.509 576.125 549.783 573.708Z"/><path fill="#D16760" d="M582.42 757.29C584.251 757.443 591.812 763.644 593.59 765.047C610.323 778.242 629.413 787.453 649.646 794.387C632.028 802.329 602.707 806.141 583.561 806.3C558.787 806.574 537.513 802.494 514.555 793.603C536.922 788.697 564.169 770.842 582.42 757.29Z"/><path fill="#151C1F" d="M700.352 491.462C710.344 489.968 726.001 492.29 735.411 495.674C751.536 501.455 766.255 512.19 774.005 527.804C776.805 533.445 780.412 548.343 772.345 551.603C762.962 555.395 754.4 543.257 747.543 538.764C744.109 536.514 740.867 534.98 737.044 533.22C717.851 525.412 698.962 526.092 680.145 535.503C676.747 536.961 670.75 542.827 667.357 543.235C650.384 545.279 652.13 524.228 659.146 515.516C670.613 501.278 683.173 494.181 700.352 491.462Z"/><path fill="#151C1F" d="M448.867 491.519C451.386 491.05 453.888 491.544 456.663 491.119C478.935 487.715 520.888 514.739 507.647 539.926C503.063 548.645 489.128 538.407 483.31 535.018C471.279 528.008 457.189 527.061 443.353 528.928C434.214 530.642 427.803 532.667 419.812 537.818C413.046 542.075 407.308 549.706 399.449 551.922C394.077 553.436 388.952 548.48 388.471 543.269C387.591 533.737 392.074 525.43 397.837 518.206C410.354 502.515 429.233 493.875 448.867 491.519Z"/><path fill="#151C1F" d="M704.572 567.157C744.652 562.864 752.151 633.378 715.847 647.484C677.077 653.032 666.435 583.505 704.572 567.157Z"/><path fill="#151C1F" d="M450.332 567.184C489.466 561.674 498.864 632.497 461.357 647.432C423.889 653.212 411.874 584.451 450.332 567.184Z"/><path fill="#151C1F" d="M644.67 832.418C648.187 832.97 651.455 834.748 652.47 838.347C652.174 852.606 618.281 863.747 606.376 866.437C577.219 873.026 548.491 866.611 523.457 850.901C519.006 847.702 514.018 843.21 515.327 837.022C515.815 834.714 520.225 832.973 522.268 833.467C526.391 834.538 530.643 837.16 534.395 839.234C560.425 853.625 593.124 854.833 620.775 844.447C628.9 841.395 636.808 836.389 644.67 832.418Z"/><path fill="#151C1F" d="M887.844 621.879C907.809 620.991 919.344 657.987 903.526 662.713C894.58 661.198 897.361 647.339 891.385 641.799C884.95 640.229 880.281 651.378 878.048 655.99C891.253 666.533 895.203 678.517 893.356 695.054C891.746 701.277 887.249 716.008 878.515 713.875C868.269 711.373 878.176 692.864 877.671 686.65C877.33 682.442 874.39 677.435 872.409 673.802C848.047 690.719 859.661 629.021 887.844 621.879Z"/><path fill="#151C1F" d="M279.111 622.518C311.097 621.743 325.749 690.869 300.477 673.526C287.635 691.578 305.076 703.368 294.881 712.78C287.716 714.474 284.36 707.544 281.925 702.1C275.236 684.221 280.474 667.657 294.38 655.179C291.781 650.381 288.678 642.425 282.547 642.352C274.735 645.329 276.555 661.366 267.581 661.336C257.146 655.689 264.21 637.96 268.893 630.466C271.392 626.468 274.967 624.454 279.111 622.518Z"/><path fill="#FEFEFD" d="M549.537 96.3258C582.808 94.4142 649.54 97.1862 683.528 101.826C747.231 112.247 829.662 122.967 874.137 174.131C896.125 199.425 885.943 230.505 877.817 258.517C863.727 307.085 851.543 356.128 845.117 406.461C790.789 369.42 710.357 355.132 645.338 349.739C554.777 343.795 418.16 348.351 340.051 397.836C335.298 364.177 330.297 335.569 321.984 302.277L309.074 251.89C305.953 239.685 301.599 223.714 300.791 211.487C299.637 194.043 307.593 172.422 319.842 159.822C370.155 108.073 480.932 99.2199 549.537 96.3258Z"/><path fill="#151C1F" d="M474.904 128.461C482.007 131.114 484.314 142.353 485.568 149.201C494.295 196.868 499.34 245.374 504.97 293.5C505.872 301.216 508.848 316.821 504.846 323.144C501.703 324.031 495.485 324.722 494.693 320.602C490.008 296.232 487.86 269.331 484.999 244.774L477.594 182.069C476.298 171.085 470.997 137.11 474.904 128.461Z"/><path fill="#151C1F" d="M584.362 121.723C590.625 124.443 590.531 128.806 590.8 135.375C593.072 191.219 591.547 247.25 592.046 303.139C592.124 311.821 593.47 315.525 585.573 320.254C581.138 319.099 578.587 317.4 578.249 312.495C577.667 304.015 577.886 295.427 577.899 286.922L578.043 241.255C578.178 204.882 577.951 167.523 580.436 131.164C580.7 127.302 581.954 124.695 584.362 121.723Z"/><path fill="#151C1F" d="M794.101 154.119L796.026 155.628C799.125 161.457 791.53 187.403 789.667 194.633L778.33 238.477L763.354 296.418C760.64 306.898 758.056 317.459 754.969 327.831C753.413 333.058 749.572 333.869 744.713 333.248C743.215 331.866 739.999 328.539 740.532 326.33C752.72 275.896 765.056 224.605 781.71 175.425C784.076 168.436 788.779 158.778 794.101 154.119Z"/><path fill="#151C1F" d="M694.473 129.957C696.184 130.122 696.272 130.358 697.666 131.326C703.618 149.621 678.901 280.556 678.766 309.73C678.731 317.217 677.651 322.447 669.843 324.419C662.823 319.82 664.113 315.477 665.007 307.602C670.995 254.875 676.177 201.665 686.381 149.568C687.73 142.68 690.105 135.483 694.473 129.957Z"/><path fill="#151C1F" d="M374.093 155.425C375.177 155.621 376.294 155.795 377.208 156.459C391.621 166.936 423.519 294.394 428.557 317.393C429.752 322.851 431.033 327.323 427.819 332.316C420.017 335.175 417.309 331.907 415.381 324.617C401.949 273.818 388.529 222.974 375.494 172.078C374.189 166.985 373.307 160.581 374.093 155.425Z"/><path fill="#FEFEFD" d="M557.66 370.91C574.508 369.818 599.479 370.354 616.252 371.084C692.539 374.404 780.449 386.09 843.211 432.15C842.93 453.446 840.872 475.575 839.971 496.978C828.64 488.942 814.696 482.353 801.966 476.939C746.514 453.357 687.701 446.408 628.198 442.661C530.65 437.846 424.594 443.813 336.552 489.576C336.495 469.185 339.706 443.605 340.723 422.55C395.65 383.934 490.895 372.731 557.66 370.91Z"/><path fill="#414141" d="M124.915 380.421C151.742 378.588 166.971 409.505 174.747 431.031C191.431 477.218 199.224 536.025 179.96 582.638C169.624 607.938 138.942 624.254 135.776 652.72C132.889 678.683 135.033 708.441 135.526 734.738C136.23 772.328 136.066 810.001 136.999 847.5L124.938 847.465C121.236 847.497 116.637 848.012 112.878 848.329C112.432 786.642 115.448 724.531 115.374 662.83C115.344 637.57 97.3356 622.19 81.881 605.026C70.4786 592.362 63.8247 570.895 61.2654 554.177C55.7119 509.529 65.0137 460.312 85.8014 420.44C94.5054 403.745 106.197 386.285 124.915 380.421Z"/><path fill="#FEFEFD" d="M239.852 1305.66C239.984 1305.84 240.123 1306.02 240.246 1306.2C241.722 1308.44 241.105 1377.66 240.504 1386.68C239.98 1394.53 238.932 1402.3 237.036 1409.95C230.075 1438 212.298 1462.8 187.426 1477.72C166.133 1490.5 139.843 1494.31 115.769 1488.21C86.9841 1480.91 66.7868 1461.8 51.8651 1436.9C30.1107 1396.55 36.9477 1349.63 36.9525 1305.58L37.7798 1306.43C64.153 1333.43 99.1779 1345.93 136.52 1346.32C176.884 1346.76 210.902 1333.91 239.852 1305.66Z"/><path fill="#EEB97D" d="M121.831 871.03C134.431 869.211 149.189 871.36 161.266 875.15C173.918 879.121 189.292 886.208 195.545 898.542C199.469 906.281 198.463 913.448 195.806 921.396C164.019 908.287 117.865 913.737 86.0042 924.66C74.5133 927.608 79.3088 942.958 87.503 940.688C117.932 932.258 147.006 928.85 178.533 935.708C204.771 941.414 209.458 959.74 202.608 984.409C201.019 983.681 199.104 982.877 197.363 982.153C164.389 969.32 123.549 975.359 90.6017 985.468C79.5762 988.85 79.1516 1002.13 88.9702 1003.42C95.1218 1004.23 108.46 999.455 115.427 998.301C138.39 994.498 163.386 992.667 186.141 998.679C211.649 1005.59 207.156 1026.37 200.55 1046.17C197.75 1044.48 194.737 1042.92 191.844 1041.36C164.033 1029.2 128.191 1031.8 99.9768 1040.94C85.3952 1048.64 89.723 1061.9 106.514 1058.15C130.711 1052.75 193.149 1042.6 195.723 1080.36C196.794 1096.07 189.768 1106.55 180.115 1118.12C180.139 1113.79 180.753 1104.72 177.627 1101.55C172.89 1096.73 161.806 1095.32 154.953 1094.73C141.379 1093.58 117.315 1095.15 106.197 1103.39C102.993 1105.77 103.131 1116.89 102.831 1121.4C62.3537 1085.51 51.0502 1047.44 51.9076 995.801C51.226 989.779 49.8759 983.47 49.1838 977.474C48.4305 970.947 48.9895 964.102 50.148 957.716C51.5453 950.014 54.1907 942.247 55.4579 934.577C57.3963 922.845 56.7684 907.396 65.2012 897.82C79.1691 881.959 101.271 873.18 121.831 871.03Z"/><path fill="#FEFEFD" d="M65.7538 1121.92C67.2033 1124.07 62.9568 1175.62 62.9945 1184.19C59.6367 1189.06 56.4577 1193.64 54.7774 1199.39C52.708 1206.48 53.6643 1213.54 57.3264 1219.94C66.8029 1236.5 85.9512 1244.2 103.461 1248.9C108.246 1256.7 112.958 1263.78 120.924 1268.74C129.376 1273.99 139.597 1275.72 149.281 1273.36C162.812 1270.06 171.725 1259.98 178.618 1248.54C190.315 1244.53 201.73 1240.76 211.729 1233.21C220.257 1226.76 228.498 1217.68 229.927 1206.67C231.163 1197.15 227.086 1189.75 221.464 1182.46C221.35 1164.39 221.554 1145.72 218.549 1127.87C233.786 1145.43 239.769 1161.03 240.218 1184.2C240.928 1193.92 240.837 1203.79 240.767 1213.53C240.673 1226.77 241.519 1264.6 237.46 1274.84C234.794 1281.56 229.497 1287.13 224.407 1292.13C201.288 1314.87 169.887 1325.57 137.762 1325.23C106.703 1324.91 74.2339 1315.11 52.1354 1292.36C46.9822 1287.05 41.4776 1280.16 39.2619 1272.98C35.6228 1261.19 37.2612 1208.46 37.4452 1193.09C37.8038 1163.15 44.0205 1143.13 65.7538 1121.92Z"/><path fill="#FEFEFD" d="M354.55 909.242C406.307 951.27 447.521 961.173 511.129 974.295C520.667 976.262 529.914 979.444 539.401 981.625C547.086 983.391 554.941 984.131 562.633 985.836C562.853 986.059 563.077 986.277 563.292 986.503C574.784 998.541 570.991 1025.93 570.807 1041.74L567.653 1041.59C550.889 1040.84 534.304 1039.8 517.677 1037.37C470.012 1030.43 402.96 1012.64 369.239 975.521C350.833 955.26 353.295 934.842 354.55 909.242Z"/><path fill="#FEFEFD" d="M810.783 910.389C811.493 911.444 811.6 911.563 811.636 912.818C812.379 938.32 813.66 957.102 794.796 977.029C751.926 1022.31 656.907 1039.45 597.184 1041.2C594.858 1037.58 596.423 1014.25 596.769 1008.51C597.124 1002.6 598.554 990.36 604.227 986.85C610.77 982.801 622.535 983.19 630.16 980.991C637.1 978.99 643.858 976.376 650.88 974.631C663.085 971.599 675.684 969.976 687.994 967.357C735.131 957.332 774.291 942.781 810.783 910.389Z"/><path fill="#414141" d="M140.641 1114.06C147.097 1113.69 153.362 1114.17 159.794 1114.69C159.646 1141.16 161.57 1167.91 162.349 1194.39C162.673 1205.4 163.678 1217.01 162.613 1227.97C162.214 1232.08 161.342 1235.94 159.568 1239.68C156.171 1246.84 150.794 1250.8 143.476 1253.44L141.721 1253.43C135.828 1253.32 130.876 1251.32 126.812 1246.97C122.467 1242.32 120.546 1235.64 119.753 1229.47C118.101 1216.61 119.635 1202.56 120.099 1189.57L123.053 1116.58C128.932 1115.41 134.665 1114.55 140.641 1114.06Z"/><path fill="#EEB97D" d="M201.254 867.094C209.189 866.651 215.706 866.954 222.533 872.149C242.182 887.099 233.398 915.69 235.687 936.969C236.649 945.913 239.188 953.805 240.266 962.15C245.617 1003.56 237.219 1039.26 212.584 1072.85L211.278 1072.89L209.369 1066.46C224.116 1047 230.446 1019.71 217.929 997.578C229.725 975.674 227.285 949.778 211.349 930.764C220.049 913.044 219.091 895.757 205.979 880.305C202.91 876.688 198.602 873.806 195.946 869.911C197.367 868.09 198.786 868.038 201.254 867.094Z"/><path fill="#EEB97D" d="M199.3 1124.76C203.047 1136.58 202.325 1199.37 202.553 1214.09C197.003 1218.98 190.825 1222.38 183.995 1225.13C181.839 1217.17 183.081 1201.59 182.913 1192.76C182.583 1175.55 182.176 1158.23 180.724 1141.06C187.846 1136.28 193.482 1130.98 199.3 1124.76Z"/><path fill="#EEB97D" d="M86.3376 1134.36C91.2418 1138.07 96.1831 1141.6 101.353 1144.93C100.592 1155.17 99.1975 1220.27 98.2708 1222.88C98.0842 1223.41 97.6575 1223.82 97.3509 1224.28C91.5079 1222.41 86.2016 1219.84 80.9296 1216.75C82.7998 1189.33 83.5681 1161.69 86.3376 1134.36Z"/></svg>